<?xml version="1.0" encoding="utf-8" standalone="no"?>
<!DOCTYPE svg PUBLIC "-//W3C//DTD SVG 1.1//EN"
  "http://www.w3.org/Graphics/SVG/1.1/DTD/svg11.dtd">
<svg xmlns:xlink="http://www.w3.org/1999/xlink" width="460.8pt" height="345.6pt" viewBox="0 0 460.8 345.6" xmlns="http://www.w3.org/2000/svg" version="1.1">
 <metadata>
  <rdf:RDF xmlns:dc="http://purl.org/dc/elements/1.1/" xmlns:cc="http://creativecommons.org/ns#" xmlns:rdf="http://www.w3.org/1999/02/22-rdf-syntax-ns#">
   <cc:Work>
    <dc:type rdf:resource="http://purl.org/dc/dcmitype/StillImage"/>
    <dc:date>2026-07-17T11:18:11.698304</dc:date>
    <dc:format>image/svg+xml</dc:format>
    <dc:creator>
     <cc:Agent>
      <dc:title>Matplotlib v3.11.0, https://matplotlib.org/</dc:title>
     </cc:Agent>
    </dc:creator>
   </cc:Work>
  </rdf:RDF>
 </metadata>
 <defs>
  <style type="text/css">*{stroke-linejoin: round; stroke-linecap: butt}</style>
 </defs>
 <g id="figure_1">
  <g id="patch_1">
   <path d="M 0 345.6 
L 460.8 345.6 
L 460.8 0 
L 0 0 
z
" style="fill: #ffffff"/>
  </g>
  <g id="axes_1">
   <g id="patch_2">
    <path d="M 57.6 307.584 
L 414.72 307.584 
L 414.72 41.472 
L 57.6 41.472 
z
" style="fill: #ffffff"/>
   </g>
   <g id="patch_3">
    <path d="M 57.6 180.300623 
L 414.72 180.300623 
L 414.72 139.756633 
L 57.6 139.756633 
z
" clip-path="url(#pfeb50635be)" style="fill: #d3d3d3; opacity: 0.5; stroke: #d3d3d3; stroke-linejoin: miter"/>
   </g>
   <g id="matplotlib.axis_1">
    <g id="xtick_1">
     <g id="line2d_1">
      <defs>
       <path id="mf2a93c24dc" d="M 0 0 
L 0 3.5 
" style="stroke: #000000; stroke-width: 0.8"/>
      </defs>
      <g>
       <use xlink:href="#mf2a93c24dc" x="73.832727" y="307.584" style="stroke: #000000; stroke-width: 0.8"/>
      </g>
     </g>
     <g id="text_1">
      <!-- 2020-01 -->
      <g transform="translate(52.941321 322.181656) scale(0.1 -0.1)">
       <defs>
        <path id="DejaVuSans-15" d="M 1228 531 
L 3431 531 
L 3431 0 
L 469 0 
L 469 531 
Q 828 903 1448 1529 
Q 2069 2156 2228 2338 
Q 2531 2678 2651 2914 
Q 2772 3150 2772 3378 
Q 2772 3750 2511 3984 
Q 2250 4219 1831 4219 
Q 1534 4219 1204 4116 
Q 875 4013 500 3803 
L 500 4441 
Q 881 4594 1212 4672 
Q 1544 4750 1819 4750 
Q 2544 4750 2975 4387 
Q 3406 4025 3406 3419 
Q 3406 3131 3298 2873 
Q 3191 2616 2906 2266 
Q 2828 2175 2409 1742 
Q 1991 1309 1228 531 
z
" transform="scale(0.015625)"/>
        <path id="DejaVuSans-13" d="M 2034 4250 
Q 1547 4250 1301 3770 
Q 1056 3291 1056 2328 
Q 1056 1369 1301 889 
Q 1547 409 2034 409 
Q 2525 409 2770 889 
Q 3016 1369 3016 2328 
Q 3016 3291 2770 3770 
Q 2525 4250 2034 4250 
z
M 2034 4750 
Q 2819 4750 3233 4129 
Q 3647 3509 3647 2328 
Q 3647 1150 3233 529 
Q 2819 -91 2034 -91 
Q 1250 -91 836 529 
Q 422 1150 422 2328 
Q 422 3509 836 4129 
Q 1250 4750 2034 4750 
z
" transform="scale(0.015625)"/>
        <path id="DejaVuSans-10" d="M 313 2009 
L 1997 2009 
L 1997 1497 
L 313 1497 
L 313 2009 
z
" transform="scale(0.015625)"/>
        <path id="DejaVuSans-14" d="M 794 531 
L 1825 531 
L 1825 4091 
L 703 3866 
L 703 4441 
L 1819 4666 
L 2450 4666 
L 2450 531 
L 3481 531 
L 3481 0 
L 794 0 
L 794 531 
z
" transform="scale(0.015625)"/>
       </defs>
       <use xlink:href="#DejaVuSans-15"/>
       <use xlink:href="#DejaVuSans-13" transform="translate(63.625 0)"/>
       <use xlink:href="#DejaVuSans-15" transform="translate(127.25 0)"/>
       <use xlink:href="#DejaVuSans-13" transform="translate(190.875 0)"/>
       <use xlink:href="#DejaVuSans-10" transform="translate(254.5 0)"/>
       <use xlink:href="#DejaVuSans-13" transform="translate(290.578125 0)"/>
       <use xlink:href="#DejaVuSans-14" transform="translate(354.203125 0)"/>
      </g>
     </g>
    </g>
    <g id="xtick_2">
     <g id="line2d_2">
      <g>
       <use xlink:href="#mf2a93c24dc" x="127.200598" y="307.584" style="stroke: #000000; stroke-width: 0.8"/>
      </g>
     </g>
     <g id="text_2">
      <!-- 2020-03 -->
      <g transform="translate(106.309192 322.181656) scale(0.1 -0.1)">
       <defs>
        <path id="DejaVuSans-16" d="M 2597 2516 
Q 3050 2419 3304 2112 
Q 3559 1806 3559 1356 
Q 3559 666 3084 287 
Q 2609 -91 1734 -91 
Q 1441 -91 1130 -33 
Q 819 25 488 141 
L 488 750 
Q 750 597 1062 519 
Q 1375 441 1716 441 
Q 2309 441 2620 675 
Q 2931 909 2931 1356 
Q 2931 1769 2642 2001 
Q 2353 2234 1838 2234 
L 1294 2234 
L 1294 2753 
L 1863 2753 
Q 2328 2753 2575 2939 
Q 2822 3125 2822 3475 
Q 2822 3834 2567 4026 
Q 2313 4219 1838 4219 
Q 1578 4219 1281 4162 
Q 984 4106 628 3988 
L 628 4550 
Q 988 4650 1302 4700 
Q 1616 4750 1894 4750 
Q 2613 4750 3031 4423 
Q 3450 4097 3450 3541 
Q 3450 3153 3228 2886 
Q 3006 2619 2597 2516 
z
" transform="scale(0.015625)"/>
       </defs>
       <use xlink:href="#DejaVuSans-15"/>
       <use xlink:href="#DejaVuSans-13" transform="translate(63.625 0)"/>
       <use xlink:href="#DejaVuSans-15" transform="translate(127.25 0)"/>
       <use xlink:href="#DejaVuSans-13" transform="translate(190.875 0)"/>
       <use xlink:href="#DejaVuSans-10" transform="translate(254.5 0)"/>
       <use xlink:href="#DejaVuSans-13" transform="translate(290.578125 0)"/>
       <use xlink:href="#DejaVuSans-16" transform="translate(354.203125 0)"/>
      </g>
     </g>
    </g>
    <g id="xtick_3">
     <g id="line2d_3">
      <g>
       <use xlink:href="#mf2a93c24dc" x="181.457933" y="307.584" style="stroke: #000000; stroke-width: 0.8"/>
      </g>
     </g>
     <g id="text_3">
      <!-- 2020-05 -->
      <g transform="translate(160.566527 322.181656) scale(0.1 -0.1)">
       <defs>
        <path id="DejaVuSans-18" d="M 691 4666 
L 3169 4666 
L 3169 4134 
L 1269 4134 
L 1269 2991 
Q 1406 3038 1543 3061 
Q 1681 3084 1819 3084 
Q 2600 3084 3056 2656 
Q 3513 2228 3513 1497 
Q 3513 744 3044 326 
Q 2575 -91 1722 -91 
Q 1428 -91 1123 -41 
Q 819 9 494 109 
L 494 744 
Q 775 591 1075 516 
Q 1375 441 1709 441 
Q 2250 441 2565 725 
Q 2881 1009 2881 1497 
Q 2881 1984 2565 2268 
Q 2250 2553 1709 2553 
Q 1456 2553 1204 2497 
Q 953 2441 691 2322 
L 691 4666 
z
" transform="scale(0.015625)"/>
       </defs>
       <use xlink:href="#DejaVuSans-15"/>
       <use xlink:href="#DejaVuSans-13" transform="translate(63.625 0)"/>
       <use xlink:href="#DejaVuSans-15" transform="translate(127.25 0)"/>
       <use xlink:href="#DejaVuSans-13" transform="translate(190.875 0)"/>
       <use xlink:href="#DejaVuSans-10" transform="translate(254.5 0)"/>
       <use xlink:href="#DejaVuSans-13" transform="translate(290.578125 0)"/>
       <use xlink:href="#DejaVuSans-18" transform="translate(354.203125 0)"/>
      </g>
     </g>
    </g>
    <g id="xtick_4">
     <g id="line2d_4">
      <g>
       <use xlink:href="#mf2a93c24dc" x="235.715268" y="307.584" style="stroke: #000000; stroke-width: 0.8"/>
      </g>
     </g>
     <g id="text_4">
      <!-- 2020-07 -->
      <g transform="translate(214.823861 322.181656) scale(0.1 -0.1)">
       <defs>
        <path id="DejaVuSans-1a" d="M 525 4666 
L 3525 4666 
L 3525 4397 
L 1831 0 
L 1172 0 
L 2766 4134 
L 525 4134 
L 525 4666 
z
" transform="scale(0.015625)"/>
       </defs>
       <use xlink:href="#DejaVuSans-15"/>
       <use xlink:href="#DejaVuSans-13" transform="translate(63.625 0)"/>
       <use xlink:href="#DejaVuSans-15" transform="translate(127.25 0)"/>
       <use xlink:href="#DejaVuSans-13" transform="translate(190.875 0)"/>
       <use xlink:href="#DejaVuSans-10" transform="translate(254.5 0)"/>
       <use xlink:href="#DejaVuSans-13" transform="translate(290.578125 0)"/>
       <use xlink:href="#DejaVuSans-1a" transform="translate(354.203125 0)"/>
      </g>
     </g>
    </g>
    <g id="xtick_5">
     <g id="line2d_5">
      <g>
       <use xlink:href="#mf2a93c24dc" x="290.862067" y="307.584" style="stroke: #000000; stroke-width: 0.8"/>
      </g>
     </g>
     <g id="text_5">
      <!-- 2020-09 -->
      <g transform="translate(269.970661 322.181656) scale(0.1 -0.1)">
       <defs>
        <path id="DejaVuSans-1c" d="M 703 97 
L 703 672 
Q 941 559 1184 500 
Q 1428 441 1663 441 
Q 2288 441 2617 861 
Q 2947 1281 2994 2138 
Q 2813 1869 2534 1725 
Q 2256 1581 1919 1581 
Q 1219 1581 811 2004 
Q 403 2428 403 3163 
Q 403 3881 828 4315 
Q 1253 4750 1959 4750 
Q 2769 4750 3195 4129 
Q 3622 3509 3622 2328 
Q 3622 1225 3098 567 
Q 2575 -91 1691 -91 
Q 1453 -91 1209 -44 
Q 966 3 703 97 
z
M 1959 2075 
Q 2384 2075 2632 2365 
Q 2881 2656 2881 3163 
Q 2881 3666 2632 3958 
Q 2384 4250 1959 4250 
Q 1534 4250 1286 3958 
Q 1038 3666 1038 3163 
Q 1038 2656 1286 2365 
Q 1534 2075 1959 2075 
z
" transform="scale(0.015625)"/>
       </defs>
       <use xlink:href="#DejaVuSans-15"/>
       <use xlink:href="#DejaVuSans-13" transform="translate(63.625 0)"/>
       <use xlink:href="#DejaVuSans-15" transform="translate(127.25 0)"/>
       <use xlink:href="#DejaVuSans-13" transform="translate(190.875 0)"/>
       <use xlink:href="#DejaVuSans-10" transform="translate(254.5 0)"/>
       <use xlink:href="#DejaVuSans-13" transform="translate(290.578125 0)"/>
       <use xlink:href="#DejaVuSans-1c" transform="translate(354.203125 0)"/>
      </g>
     </g>
    </g>
    <g id="xtick_6">
     <g id="line2d_6">
      <g>
       <use xlink:href="#mf2a93c24dc" x="345.119402" y="307.584" style="stroke: #000000; stroke-width: 0.8"/>
      </g>
     </g>
     <g id="text_6">
      <!-- 2020-11 -->
      <g transform="translate(324.227996 322.181656) scale(0.1 -0.1)">
       <use xlink:href="#DejaVuSans-15"/>
       <use xlink:href="#DejaVuSans-13" transform="translate(63.625 0)"/>
       <use xlink:href="#DejaVuSans-15" transform="translate(127.25 0)"/>
       <use xlink:href="#DejaVuSans-13" transform="translate(190.875 0)"/>
       <use xlink:href="#DejaVuSans-10" transform="translate(254.5 0)"/>
       <use xlink:href="#DejaVuSans-14" transform="translate(290.578125 0)"/>
       <use xlink:href="#DejaVuSans-14" transform="translate(354.203125 0)"/>
      </g>
     </g>
    </g>
    <g id="xtick_7">
     <g id="line2d_7">
      <g>
       <use xlink:href="#mf2a93c24dc" x="399.376737" y="307.584" style="stroke: #000000; stroke-width: 0.8"/>
      </g>
     </g>
     <g id="text_7">
      <!-- 2021-01 -->
      <g transform="translate(378.485331 322.181656) scale(0.1 -0.1)">
       <use xlink:href="#DejaVuSans-15"/>
       <use xlink:href="#DejaVuSans-13" transform="translate(63.625 0)"/>
       <use xlink:href="#DejaVuSans-15" transform="translate(127.25 0)"/>
       <use xlink:href="#DejaVuSans-14" transform="translate(190.875 0)"/>
       <use xlink:href="#DejaVuSans-10" transform="translate(254.5 0)"/>
       <use xlink:href="#DejaVuSans-13" transform="translate(290.578125 0)"/>
       <use xlink:href="#DejaVuSans-14" transform="translate(354.203125 0)"/>
      </g>
     </g>
    </g>
    <g id="text_8">
     <!-- Date -->
     <g transform="translate(222.85375 336.181656) scale(0.1 -0.1)">
      <defs>
       <path id="DejaVuSans-Bold-27" d="M 1791 3756 
L 1791 909 
L 2222 909 
Q 2959 909 3348 1275 
Q 3738 1641 3738 2338 
Q 3738 3031 3350 3393 
Q 2963 3756 2222 3756 
L 1791 3756 
z
M 588 4666 
L 1856 4666 
Q 2919 4666 3439 4514 
Q 3959 4363 4331 4000 
Q 4659 3684 4818 3271 
Q 4978 2859 4978 2338 
Q 4978 1809 4818 1395 
Q 4659 981 4331 666 
Q 3956 303 3431 151 
Q 2906 0 1856 0 
L 588 0 
L 588 4666 
z
" transform="scale(0.015625)"/>
       <path id="DejaVuSans-Bold-44" d="M 2106 1575 
Q 1756 1575 1579 1456 
Q 1403 1338 1403 1106 
Q 1403 894 1545 773 
Q 1688 653 1941 653 
Q 2256 653 2472 879 
Q 2688 1106 2688 1447 
L 2688 1575 
L 2106 1575 
z
M 3816 1997 
L 3816 0 
L 2688 0 
L 2688 519 
Q 2463 200 2181 54 
Q 1900 -91 1497 -91 
Q 953 -91 614 226 
Q 275 544 275 1050 
Q 275 1666 698 1953 
Q 1122 2241 2028 2241 
L 2688 2241 
L 2688 2328 
Q 2688 2594 2478 2717 
Q 2269 2841 1825 2841 
Q 1466 2841 1156 2769 
Q 847 2697 581 2553 
L 581 3406 
Q 941 3494 1303 3539 
Q 1666 3584 2028 3584 
Q 2975 3584 3395 3211 
Q 3816 2838 3816 1997 
z
" transform="scale(0.015625)"/>
       <path id="DejaVuSans-Bold-57" d="M 1759 4494 
L 1759 3500 
L 2913 3500 
L 2913 2700 
L 1759 2700 
L 1759 1216 
Q 1759 972 1856 886 
Q 1953 800 2241 800 
L 2816 800 
L 2816 0 
L 1856 0 
Q 1194 0 917 276 
Q 641 553 641 1216 
L 641 2700 
L 84 2700 
L 84 3500 
L 641 3500 
L 641 4494 
L 1759 4494 
z
" transform="scale(0.015625)"/>
       <path id="DejaVuSans-Bold-48" d="M 4031 1759 
L 4031 1441 
L 1416 1441 
Q 1456 1047 1700 850 
Q 1944 653 2381 653 
Q 2734 653 3104 758 
Q 3475 863 3866 1075 
L 3866 213 
Q 3469 63 3072 -14 
Q 2675 -91 2278 -91 
Q 1328 -91 801 392 
Q 275 875 275 1747 
Q 275 2603 792 3093 
Q 1309 3584 2216 3584 
Q 3041 3584 3536 3087 
Q 4031 2591 4031 1759 
z
M 2881 2131 
Q 2881 2450 2695 2645 
Q 2509 2841 2209 2841 
Q 1884 2841 1681 2658 
Q 1478 2475 1428 2131 
L 2881 2131 
z
" transform="scale(0.015625)"/>
      </defs>
      <use xlink:href="#DejaVuSans-Bold-27"/>
      <use xlink:href="#DejaVuSans-Bold-44" transform="translate(83.015625 0)"/>
      <use xlink:href="#DejaVuSans-Bold-57" transform="translate(150.5 0)"/>
      <use xlink:href="#DejaVuSans-Bold-48" transform="translate(198.296875 0)"/>
     </g>
    </g>
   </g>
   <g id="matplotlib.axis_2">
    <g id="ytick_1">
     <g id="line2d_8">
      <path d="M 57.6 281.660598 
L 414.72 281.660598 
" clip-path="url(#pfeb50635be)" style="fill: none; stroke-dasharray: 2.22,0.96; stroke-dashoffset: 0; stroke: #b0b0b0; stroke-opacity: 0.25; stroke-width: 0.6"/>
     </g>
     <g id="line2d_9">
      <defs>
       <path id="m259b1b768b" d="M 0 0 
L -3.5 0 
" style="stroke: #000000; stroke-width: 0.8"/>
      </defs>
      <g>
       <use xlink:href="#m259b1b768b" x="57.6" y="281.660598" style="stroke: #000000; stroke-width: 0.8"/>
      </g>
     </g>
     <g id="text_9">
      <!-- −30 -->
      <g transform="translate(29.495313 285.459426) scale(0.1 -0.1)">
       <defs>
        <path id="DejaVuSans-c9c" d="M 678 2272 
L 4684 2272 
L 4684 1741 
L 678 1741 
L 678 2272 
z
" transform="scale(0.015625)"/>
       </defs>
       <use xlink:href="#DejaVuSans-c9c"/>
       <use xlink:href="#DejaVuSans-16" transform="translate(83.796875 0)"/>
       <use xlink:href="#DejaVuSans-13" transform="translate(147.421875 0)"/>
      </g>
     </g>
    </g>
    <g id="ytick_2">
     <g id="line2d_10">
      <path d="M 57.6 241.116608 
L 414.72 241.116608 
" clip-path="url(#pfeb50635be)" style="fill: none; stroke-dasharray: 2.22,0.96; stroke-dashoffset: 0; stroke: #b0b0b0; stroke-opacity: 0.25; stroke-width: 0.6"/>
     </g>
     <g id="line2d_11">
      <g>
       <use xlink:href="#m259b1b768b" x="57.6" y="241.116608" style="stroke: #000000; stroke-width: 0.8"/>
      </g>
     </g>
     <g id="text_10">
      <!-- −20 -->
      <g transform="translate(29.495313 244.915436) scale(0.1 -0.1)">
       <use xlink:href="#DejaVuSans-c9c"/>
       <use xlink:href="#DejaVuSans-15" transform="translate(83.796875 0)"/>
       <use xlink:href="#DejaVuSans-13" transform="translate(147.421875 0)"/>
      </g>
     </g>
    </g>
    <g id="ytick_3">
     <g id="line2d_12">
      <path d="M 57.6 200.572618 
L 414.72 200.572618 
" clip-path="url(#pfeb50635be)" style="fill: none; stroke-dasharray: 2.22,0.96; stroke-dashoffset: 0; stroke: #b0b0b0; stroke-opacity: 0.25; stroke-width: 0.6"/>
     </g>
     <g id="line2d_13">
      <g>
       <use xlink:href="#m259b1b768b" x="57.6" y="200.572618" style="stroke: #000000; stroke-width: 0.8"/>
      </g>
     </g>
     <g id="text_11">
      <!-- −10 -->
      <g transform="translate(29.495313 204.371446) scale(0.1 -0.1)">
       <use xlink:href="#DejaVuSans-c9c"/>
       <use xlink:href="#DejaVuSans-14" transform="translate(83.796875 0)"/>
       <use xlink:href="#DejaVuSans-13" transform="translate(147.421875 0)"/>
      </g>
     </g>
    </g>
    <g id="ytick_4">
     <g id="line2d_14">
      <path d="M 57.6 160.028628 
L 414.72 160.028628 
" clip-path="url(#pfeb50635be)" style="fill: none; stroke-dasharray: 2.22,0.96; stroke-dashoffset: 0; stroke: #b0b0b0; stroke-opacity: 0.25; stroke-width: 0.6"/>
     </g>
     <g id="line2d_15">
      <g>
       <use xlink:href="#m259b1b768b" x="57.6" y="160.028628" style="stroke: #000000; stroke-width: 0.8"/>
      </g>
     </g>
     <g id="text_12">
      <!-- 0 -->
      <g transform="translate(44.2375 163.827456) scale(0.1 -0.1)">
       <use xlink:href="#DejaVuSans-13"/>
      </g>
     </g>
    </g>
    <g id="ytick_5">
     <g id="line2d_16">
      <path d="M 57.6 119.484638 
L 414.72 119.484638 
" clip-path="url(#pfeb50635be)" style="fill: none; stroke-dasharray: 2.22,0.96; stroke-dashoffset: 0; stroke: #b0b0b0; stroke-opacity: 0.25; stroke-width: 0.6"/>
     </g>
     <g id="line2d_17">
      <g>
       <use xlink:href="#m259b1b768b" x="57.6" y="119.484638" style="stroke: #000000; stroke-width: 0.8"/>
      </g>
     </g>
     <g id="text_13">
      <!-- 10 -->
      <g transform="translate(37.875 123.283466) scale(0.1 -0.1)">
       <use xlink:href="#DejaVuSans-14"/>
       <use xlink:href="#DejaVuSans-13" transform="translate(63.625 0)"/>
      </g>
     </g>
    </g>
    <g id="ytick_6">
     <g id="line2d_18">
      <path d="M 57.6 78.940648 
L 414.72 78.940648 
" clip-path="url(#pfeb50635be)" style="fill: none; stroke-dasharray: 2.22,0.96; stroke-dashoffset: 0; stroke: #b0b0b0; stroke-opacity: 0.25; stroke-width: 0.6"/>
     </g>
     <g id="line2d_19">
      <g>
       <use xlink:href="#m259b1b768b" x="57.6" y="78.940648" style="stroke: #000000; stroke-width: 0.8"/>
      </g>
     </g>
     <g id="text_14">
      <!-- 20 -->
      <g transform="translate(37.875 82.739476) scale(0.1 -0.1)">
       <use xlink:href="#DejaVuSans-15"/>
       <use xlink:href="#DejaVuSans-13" transform="translate(63.625 0)"/>
      </g>
     </g>
    </g>
    <g id="text_15">
     <!-- Percentage -->
     <g transform="translate(23.092969 206.699094) rotate(-90) scale(0.1 -0.1)">
      <defs>
       <path id="DejaVuSans-Bold-33" d="M 588 4666 
L 2584 4666 
Q 3475 4666 3951 4270 
Q 4428 3875 4428 3144 
Q 4428 2409 3951 2014 
Q 3475 1619 2584 1619 
L 1791 1619 
L 1791 0 
L 588 0 
L 588 4666 
z
M 1791 3794 
L 1791 2491 
L 2456 2491 
Q 2806 2491 2997 2661 
Q 3188 2831 3188 3144 
Q 3188 3456 2997 3625 
Q 2806 3794 2456 3794 
L 1791 3794 
z
" transform="scale(0.015625)"/>
       <path id="DejaVuSans-Bold-55" d="M 3138 2547 
Q 2991 2616 2845 2648 
Q 2700 2681 2553 2681 
Q 2122 2681 1889 2404 
Q 1656 2128 1656 1613 
L 1656 0 
L 538 0 
L 538 3500 
L 1656 3500 
L 1656 2925 
Q 1872 3269 2151 3426 
Q 2431 3584 2822 3584 
Q 2878 3584 2943 3579 
Q 3009 3575 3134 3559 
L 3138 2547 
z
" transform="scale(0.015625)"/>
       <path id="DejaVuSans-Bold-46" d="M 3366 3391 
L 3366 2478 
Q 3138 2634 2908 2709 
Q 2678 2784 2431 2784 
Q 1963 2784 1702 2511 
Q 1441 2238 1441 1747 
Q 1441 1256 1702 982 
Q 1963 709 2431 709 
Q 2694 709 2930 787 
Q 3166 866 3366 1019 
L 3366 103 
Q 3103 6 2833 -42 
Q 2563 -91 2291 -91 
Q 1344 -91 809 395 
Q 275 881 275 1747 
Q 275 2613 809 3098 
Q 1344 3584 2291 3584 
Q 2566 3584 2833 3536 
Q 3100 3488 3366 3391 
z
" transform="scale(0.015625)"/>
       <path id="DejaVuSans-Bold-51" d="M 4056 2131 
L 4056 0 
L 2931 0 
L 2931 347 
L 2931 1631 
Q 2931 2084 2911 2256 
Q 2891 2428 2841 2509 
Q 2775 2619 2662 2680 
Q 2550 2741 2406 2741 
Q 2056 2741 1856 2470 
Q 1656 2200 1656 1722 
L 1656 0 
L 538 0 
L 538 3500 
L 1656 3500 
L 1656 2988 
Q 1909 3294 2193 3439 
Q 2478 3584 2822 3584 
Q 3428 3584 3742 3212 
Q 4056 2841 4056 2131 
z
" transform="scale(0.015625)"/>
       <path id="DejaVuSans-Bold-4a" d="M 2919 594 
Q 2688 288 2409 144 
Q 2131 0 1766 0 
Q 1125 0 706 504 
Q 288 1009 288 1791 
Q 288 2575 706 3076 
Q 1125 3578 1766 3578 
Q 2131 3578 2409 3434 
Q 2688 3291 2919 2981 
L 2919 3500 
L 4044 3500 
L 4044 353 
Q 4044 -491 3511 -936 
Q 2978 -1381 1966 -1381 
Q 1638 -1381 1331 -1331 
Q 1025 -1281 716 -1178 
L 716 -306 
Q 1009 -475 1290 -558 
Q 1572 -641 1856 -641 
Q 2406 -641 2662 -400 
Q 2919 -159 2919 353 
L 2919 594 
z
M 2181 2772 
Q 1834 2772 1640 2515 
Q 1447 2259 1447 1791 
Q 1447 1309 1634 1061 
Q 1822 813 2181 813 
Q 2531 813 2725 1069 
Q 2919 1325 2919 1791 
Q 2919 2259 2725 2515 
Q 2531 2772 2181 2772 
z
" transform="scale(0.015625)"/>
      </defs>
      <use xlink:href="#DejaVuSans-Bold-33"/>
      <use xlink:href="#DejaVuSans-Bold-48" transform="translate(73.296875 0)"/>
      <use xlink:href="#DejaVuSans-Bold-55" transform="translate(141.125 0)"/>
      <use xlink:href="#DejaVuSans-Bold-46" transform="translate(190.4375 0)"/>
      <use xlink:href="#DejaVuSans-Bold-48" transform="translate(249.71875 0)"/>
      <use xlink:href="#DejaVuSans-Bold-51" transform="translate(317.546875 0)"/>
      <use xlink:href="#DejaVuSans-Bold-57" transform="translate(388.734375 0)"/>
      <use xlink:href="#DejaVuSans-Bold-44" transform="translate(436.53125 0)"/>
      <use xlink:href="#DejaVuSans-Bold-4a" transform="translate(504.015625 0)"/>
      <use xlink:href="#DejaVuSans-Bold-48" transform="translate(575.59375 0)"/>
     </g>
    </g>
   </g>
   <g id="line2d_20">
    <path d="M 73.832727 164.326658 
L 74.722192 166.523692 
L 75.611656 168.306829 
L 76.501121 172.309547 
L 77.390585 182.015745 
L 78.28005 154.082076 
L 79.169514 161.512777 
L 80.058979 176.172195 
L 80.948443 170.273918 
L 81.837908 167.643687 
L 82.727372 171.63108 
L 83.616837 177.385855 
L 84.506301 160.189785 
L 85.395766 162.404408 
L 86.28523 169.672954 
L 87.174695 182.825711 
L 88.064159 178.059609 
L 88.953624 178.47249 
L 89.843088 187.018225 
L 91.622017 147.661294 
L 92.511482 144.601586 
L 93.400946 149.11568 
L 94.290411 150.157525 
L 95.179875 144.53024 
L 96.06934 143.017383 
L 96.958804 123.841488 
L 97.848269 137.725479 
L 98.737733 146.635048 
L 99.627198 152.178751 
L 100.516663 150.296287 
L 101.406127 155.170247 
L 102.295592 167.202306 
L 103.185056 143.642828 
L 104.074521 149.02013 
L 104.963985 155.420806 
L 105.85345 149.272205 
L 106.742914 131.476443 
L 107.632379 144.214174 
L 108.521843 159.124978 
L 109.411308 127.712289 
L 110.300772 136.489516 
L 111.190237 146.771692 
L 112.079701 147.225256 
L 112.969166 142.660335 
L 113.85863 139.737788 
L 114.748095 145.332339 
L 115.637559 124.916178 
L 116.527024 130.754892 
L 117.416488 139.818527 
L 118.305953 145.370645 
L 119.195417 153.470521 
L 120.084882 158.541795 
L 120.974346 169.408701 
L 121.863811 143.810894 
L 122.753275 149.796379 
L 123.64274 150.332454 
L 124.532204 145.087487 
L 125.421669 145.157316 
L 127.200598 182.38893 
L 128.090062 157.301198 
L 128.979527 127.875259 
L 129.868991 148.827695 
L 131.64792 185.35942 
L 132.537385 185.461362 
L 133.426849 197.157179 
L 134.316314 189.662996 
L 135.205778 210.797274 
L 136.095243 209.258251 
L 136.984707 195.146154 
L 137.874172 189.971772 
L 138.763636 190.81614 
L 139.653101 200.686542 
L 140.542565 182.396388 
L 141.43203 158.874828 
L 142.321494 168.015344 
L 143.210959 180.462388 
L 144.100423 138.873854 
L 144.989888 145.864706 
L 145.879352 215.129857 
L 146.768817 219.096502 
L 147.658281 232.881568 
L 148.547746 265.007297 
L 149.43721 283.084359 
L 150.326675 292.473437 
L 151.216139 291.80903 
L 152.105604 294.666744 
L 152.995068 290.933724 
L 153.884533 270.709154 
L 154.773998 272.56032 
L 155.663462 275.408611 
L 156.552927 279.143195 
L 157.442391 281.859518 
L 158.331856 281.061999 
L 159.22132 274.029769 
L 160.110785 257.558308 
L 161.000249 275.401832 
L 161.889714 282.157105 
L 162.779178 283.629258 
L 163.668643 276.453201 
L 164.558107 277.181235 
L 165.447572 267.874363 
L 166.337036 250.4546 
L 167.226501 261.841037 
L 168.115965 240.058811 
L 169.00543 222.867158 
L 169.894894 235.888079 
L 170.784359 246.218209 
L 171.673823 252.422936 
L 172.563288 248.396765 
L 173.452752 254.382315 
L 174.342217 259.465746 
L 175.231681 265.858358 
L 176.121146 279.106667 
L 177.01061 295.488 
L 177.900075 293.7353 
L 178.789539 273.831495 
L 179.679004 283.184192 
L 180.568468 275.631446 
L 181.457933 262.446414 
L 182.347397 258.981784 
L 183.236862 252.651383 
L 184.126326 250.434883 
L 185.015791 241.146879 
L 185.905255 256.001784 
L 186.79472 260.055642 
L 188.573649 244.539839 
L 189.463113 265.880164 
L 190.352578 263.729626 
L 191.242042 234.046475 
L 192.131507 232.374652 
L 193.020971 229.754564 
L 193.910436 227.726317 
L 194.7999 224.403251 
L 195.689365 229.783554 
L 196.578829 218.059733 
L 197.468294 214.30596 
L 198.357758 235.21377 
L 199.247223 238.847629 
L 200.136687 225.128826 
L 201.026152 217.546847 
L 201.915616 203.753076 
L 202.805081 193.918183 
L 203.694545 181.631805 
L 205.473474 231.800443 
L 207.252403 247.672187 
L 208.141868 262.95261 
L 209.031333 254.648047 
L 209.920797 242.133511 
L 210.810262 245.478561 
L 211.699726 257.680467 
L 212.589191 265.203152 
L 213.478655 249.539169 
L 214.36812 246.874134 
L 215.257584 228.72079 
L 216.147049 206.653116 
L 217.036513 212.398959 
L 217.925978 224.635866 
L 218.815442 208.483586 
L 219.704907 208.972961 
L 220.594371 233.848079 
L 221.483836 215.469312 
L 222.3733 192.044597 
L 223.262765 197.479933 
L 224.152229 187.319881 
L 225.931158 197.975974 
L 226.820623 217.595305 
L 227.710087 200.418964 
L 228.599552 174.751329 
L 229.489016 184.281882 
L 230.378481 198.671278 
L 231.267945 205.46825 
L 232.15741 204.20034 
L 233.046874 211.060305 
L 233.936339 200.954056 
L 234.825803 175.852661 
L 235.715268 178.417768 
L 236.604732 171.392866 
L 237.494197 176.999578 
L 238.383661 191.140321 
L 239.273126 227.418524 
L 240.16259 197.188517 
L 241.052055 173.054107 
L 241.941519 191.432301 
L 242.830984 184.783004 
L 243.720448 186.455208 
L 244.609913 196.136347 
L 245.499377 229.554479 
L 246.388842 201.042684 
L 247.278306 168.081904 
L 249.057235 182.475169 
L 249.9467 182.932796 
L 250.836164 185.080867 
L 251.725629 203.295861 
L 252.615093 204.902605 
L 253.504558 199.769922 
L 254.394022 207.208346 
L 255.283487 207.971334 
L 256.172951 205.616183 
L 257.062416 182.724404 
L 257.95188 172.078485 
L 258.841345 129.676797 
L 259.730809 102.77507 
L 260.620274 136.382831 
L 261.509738 156.349661 
L 262.399203 160.992413 
L 263.288667 169.340499 
L 264.178132 173.226125 
L 265.957061 152.839306 
L 266.846526 182.955191 
L 267.73599 177.17184 
L 268.625455 145.303156 
L 269.514919 135.6415 
L 270.404384 155.02656 
L 271.293848 164.488091 
L 272.183313 163.787049 
L 273.072777 190.867654 
L 273.962242 197.945119 
L 274.851706 187.733474 
L 275.741171 167.543128 
L 276.630635 191.248709 
L 278.409564 131.135585 
L 279.299029 174.627265 
L 280.188493 205.745607 
L 281.077958 216.169228 
L 281.967422 215.169124 
L 282.856887 222.249097 
L 284.635816 162.515461 
L 285.52528 175.952684 
L 286.414745 196.334348 
L 287.304209 208.522148 
L 288.193674 211.893395 
L 289.083138 223.689135 
L 289.972603 205.806591 
L 290.862067 169.481402 
L 291.751532 168.682215 
L 292.640996 175.939921 
L 293.530461 170.893435 
L 294.419925 170.913304 
L 295.30939 192.246756 
L 296.198854 173.092788 
L 297.088319 146.010459 
L 297.977783 145.264908 
L 298.867248 168.395863 
L 299.756712 168.183306 
L 300.646177 164.953036 
L 301.535641 179.751401 
L 302.425106 170.396056 
L 303.31457 152.161473 
L 304.204035 162.968393 
L 305.093499 161.726671 
L 305.982964 144.789004 
L 306.872428 142.697065 
L 307.761893 166.934547 
L 308.651357 162.913461 
L 309.540822 135.185192 
L 310.430286 157.815476 
L 311.319751 149.923362 
L 312.209215 136.588149 
L 313.09868 141.602257 
L 313.988144 147.740669 
L 315.767073 71.815516 
L 316.656538 110.770801 
L 317.546002 114.309002 
L 318.435467 113.220709 
L 319.324932 125.377195 
L 320.214396 140.274731 
L 321.103861 128.858544 
L 321.993325 112.563788 
L 322.88279 103.273499 
L 323.772254 83.123328 
L 324.661719 109.365233 
L 325.551183 131.914693 
L 326.440648 160.475065 
L 327.330112 152.205427 
L 328.219577 132.700589 
L 329.109041 154.549092 
L 329.998506 155.353587 
L 330.88797 153.691392 
L 331.777435 155.262439 
L 332.666899 166.886893 
L 334.445828 119.887386 
L 336.224757 131.318317 
L 337.114222 133.092862 
L 338.003686 132.443083 
L 338.893151 156.017822 
L 339.782615 124.641738 
L 340.67208 70.895902 
L 341.561544 53.568 
L 343.340473 89.89099 
L 344.229938 101.562274 
L 345.119402 128.950836 
L 346.008867 114.643373 
L 346.898331 104.037152 
L 347.787796 124.461204 
L 348.67726 139.570638 
L 349.566725 140.67206 
L 350.456189 130.555103 
L 351.345654 145.739186 
L 352.235118 129.51053 
L 353.124583 116.718682 
L 354.014047 135.465498 
L 354.903512 142.549999 
L 355.792976 155.2259 
L 356.682441 194.509386 
L 357.571905 218.427989 
L 358.46137 208.825247 
L 359.350834 168.183671 
L 360.240299 171.619144 
L 361.129763 172.284887 
L 362.019228 168.926541 
L 362.908692 171.003348 
L 363.798157 183.81817 
L 364.687621 165.185374 
L 365.577086 143.887757 
L 366.46655 164.982317 
L 367.356015 181.822511 
L 368.245479 178.14328 
L 369.134944 168.834676 
L 370.024408 176.418709 
L 370.913873 159.232318 
L 371.803337 127.604817 
L 373.582267 143.470432 
L 374.471731 146.652614 
L 375.361196 152.18626 
L 376.25066 170.274617 
L 378.029589 136.597525 
L 378.919054 150.457536 
L 379.808518 158.117477 
L 380.697983 169.123555 
L 381.587447 171.379254 
L 382.476912 157.695932 
L 383.366376 151.690335 
L 384.255841 125.818808 
L 385.145305 138.448983 
L 386.03477 142.347415 
L 386.924234 141.19906 
L 387.813699 150.383623 
L 388.703163 169.587143 
L 390.482092 133.045745 
L 391.371557 146.532127 
L 392.261021 147.85402 
L 393.150486 144.859008 
L 394.03995 148.669514 
L 394.929415 166.037964 
L 395.818879 150.404706 
L 396.708344 131.836671 
L 397.597808 145.305107 
L 398.487273 151.999022 
L 398.487273 151.999022 
" clip-path="url(#pfeb50635be)" style="fill: none; stroke: #808080; stroke-opacity: 0.5; stroke-width: 0.7; stroke-linecap: square"/>
   </g>
   <g id="line2d_21">
    <path d="M 76.501121 166.523692 
L 78.28005 170.273918 
L 82.727372 170.273918 
L 83.616837 169.672954 
L 84.506301 169.672954 
L 85.395766 171.63108 
L 86.28523 177.385855 
L 87.174695 178.059609 
L 89.843088 178.059609 
L 90.732553 166.781394 
L 91.622017 150.157525 
L 92.511482 149.11568 
L 93.400946 147.661294 
L 94.290411 144.601586 
L 96.06934 144.53024 
L 97.848269 144.53024 
L 98.737733 146.635048 
L 99.627198 150.296287 
L 101.406127 150.296287 
L 102.295592 152.178751 
L 103.185056 150.296287 
L 104.074521 149.272205 
L 104.963985 149.02013 
L 106.742914 149.02013 
L 107.632379 144.214174 
L 110.300772 144.214174 
L 111.190237 142.660335 
L 113.85863 142.660335 
L 114.748095 139.818527 
L 116.527024 139.818527 
L 117.416488 145.332339 
L 119.195417 145.370645 
L 120.084882 149.796379 
L 120.974346 150.332454 
L 121.863811 150.332454 
L 122.753275 149.796379 
L 125.421669 149.796379 
L 127.200598 148.827695 
L 128.090062 148.827695 
L 129.868991 166.798262 
L 130.758456 166.798262 
L 131.64792 185.35942 
L 132.537385 185.461362 
L 133.426849 189.662996 
L 134.316314 195.146154 
L 137.874172 195.146154 
L 138.763636 190.81614 
L 139.653101 189.971772 
L 140.542565 182.396388 
L 141.43203 180.462388 
L 142.321494 168.015344 
L 144.100423 168.015344 
L 144.989888 180.462388 
L 145.879352 215.129857 
L 146.768817 219.096502 
L 147.658281 232.881568 
L 148.547746 265.007297 
L 149.43721 283.084359 
L 150.326675 290.933724 
L 152.995068 290.933724 
L 153.884533 279.143195 
L 155.663462 279.143195 
L 156.552927 275.408611 
L 158.331856 275.408611 
L 159.22132 279.143195 
L 160.110785 281.061999 
L 161.000249 276.453201 
L 164.558107 276.453201 
L 165.447572 267.874363 
L 166.337036 261.841037 
L 167.226501 250.4546 
L 168.115965 246.218209 
L 170.784359 246.218209 
L 171.673823 248.396765 
L 172.563288 252.422936 
L 173.452752 254.382315 
L 174.342217 259.465746 
L 175.231681 265.858358 
L 176.121146 273.831495 
L 177.01061 279.106667 
L 178.789539 279.106667 
L 179.679004 275.631446 
L 180.568468 273.831495 
L 181.457933 262.446414 
L 182.347397 258.981784 
L 183.236862 256.001784 
L 184.126326 256.001784 
L 185.015791 252.651383 
L 185.905255 252.299782 
L 186.79472 252.299782 
L 187.684184 256.001784 
L 188.573649 256.001784 
L 189.463113 252.299782 
L 190.352578 244.539839 
L 191.242042 234.046475 
L 192.131507 232.374652 
L 193.020971 229.783554 
L 193.910436 229.754564 
L 194.7999 227.726317 
L 196.578829 227.726317 
L 197.468294 225.128826 
L 198.357758 225.128826 
L 199.247223 218.059733 
L 200.136687 217.546847 
L 201.026152 217.546847 
L 201.915616 205.94701 
L 204.58401 205.94701 
L 205.473474 231.800443 
L 206.362939 239.770529 
L 207.252403 242.133511 
L 208.141868 245.478561 
L 209.031333 247.672187 
L 209.920797 254.648047 
L 210.810262 254.648047 
L 211.699726 249.539169 
L 212.589191 246.874134 
L 214.36812 246.874134 
L 215.257584 228.72079 
L 216.147049 224.635866 
L 217.036513 212.398959 
L 219.704907 212.398959 
L 220.594371 208.972961 
L 221.483836 208.483586 
L 222.3733 197.479933 
L 225.931158 197.479933 
L 226.820623 192.659106 
L 227.710087 197.975974 
L 228.599552 198.671278 
L 229.489016 200.418964 
L 230.378481 200.418964 
L 231.267945 200.954056 
L 233.936339 200.954056 
L 234.825803 178.417768 
L 238.383661 178.417768 
L 239.273126 191.140321 
L 241.052055 191.140321 
L 241.941519 191.432301 
L 244.609913 191.432301 
L 245.499377 186.455208 
L 246.388842 186.455208 
L 247.278306 182.932796 
L 249.9467 182.932796 
L 250.836164 185.080867 
L 251.725629 199.769922 
L 252.615093 203.295861 
L 253.504558 204.902605 
L 255.283487 204.902605 
L 256.172951 199.769922 
L 257.062416 182.724404 
L 257.95188 172.078485 
L 258.841345 156.349661 
L 261.509738 156.349661 
L 262.399203 160.992413 
L 263.288667 160.992413 
L 264.178132 163.008509 
L 265.067597 169.340499 
L 265.957061 169.340499 
L 266.846526 163.008509 
L 267.73599 155.02656 
L 268.625455 155.02656 
L 269.514919 163.787049 
L 271.293848 163.787049 
L 272.183313 164.488091 
L 273.072777 167.543128 
L 273.962242 187.733474 
L 275.741171 187.733474 
L 276.630635 174.627265 
L 278.409564 174.627265 
L 279.299029 191.248709 
L 280.188493 205.745607 
L 282.856887 205.745607 
L 283.746351 196.334348 
L 286.414745 196.334348 
L 287.304209 205.806591 
L 289.972603 205.806591 
L 290.862067 175.939921 
L 291.751532 170.913304 
L 296.198854 170.893435 
L 297.088319 168.395863 
L 297.977783 168.183306 
L 301.535641 168.183306 
L 302.425106 164.953036 
L 303.31457 162.968393 
L 304.204035 161.726671 
L 306.872428 161.726671 
L 307.761893 157.815476 
L 308.651357 149.923362 
L 310.430286 149.923362 
L 311.319751 147.740669 
L 312.209215 141.602257 
L 313.09868 141.602257 
L 313.988144 136.588149 
L 314.877609 114.309002 
L 315.767073 113.220709 
L 317.546002 113.220709 
L 318.435467 114.309002 
L 320.214396 114.309002 
L 321.103861 113.220709 
L 321.993325 112.563788 
L 324.661719 112.563788 
L 325.551183 131.914693 
L 326.440648 132.700589 
L 327.330112 152.205427 
L 328.219577 153.691392 
L 329.109041 154.549092 
L 331.777435 154.549092 
L 332.666899 153.691392 
L 334.445828 133.092862 
L 335.335293 132.443083 
L 336.224757 132.443083 
L 337.114222 131.318317 
L 338.893151 131.318317 
L 339.782615 124.641738 
L 340.67208 89.89099 
L 343.340473 89.89099 
L 344.229938 101.562274 
L 345.119402 104.037152 
L 346.898331 124.461204 
L 347.787796 128.950836 
L 348.67726 130.555103 
L 350.456189 130.555103 
L 351.345654 135.465498 
L 353.124583 135.465498 
L 354.014047 142.549999 
L 354.903512 142.549999 
L 356.682441 168.183671 
L 357.571905 171.619144 
L 358.46137 172.284887 
L 359.350834 172.284887 
L 360.240299 171.619144 
L 361.129763 171.619144 
L 362.019228 171.003348 
L 362.908692 171.003348 
L 363.798157 168.926541 
L 364.687621 168.926541 
L 365.577086 171.003348 
L 366.46655 168.834676 
L 370.024408 168.834676 
L 370.913873 159.232318 
L 371.803337 146.652614 
L 375.361196 146.652614 
L 376.25066 150.457536 
L 377.140125 152.18626 
L 378.029589 153.313147 
L 378.919054 158.117477 
L 379.808518 157.695932 
L 382.476912 157.695932 
L 383.366376 151.690335 
L 384.255841 142.347415 
L 387.813699 142.347415 
L 388.703163 146.532127 
L 389.592628 147.85402 
L 394.929415 147.85402 
L 395.818879 148.669514 
L 395.818879 148.669514 
" clip-path="url(#pfeb50635be)" style="fill: none; stroke: #ba7517; stroke-width: 1.5; stroke-linecap: square"/>
   </g>
   <g id="patch_4">
    <path d="M 57.6 307.584 
L 57.6 41.472 
" style="fill: none; stroke: #000000; stroke-width: 0.8; stroke-linejoin: miter; stroke-linecap: square"/>
   </g>
   <g id="patch_5">
    <path d="M 414.72 307.584 
L 414.72 41.472 
" style="fill: none; stroke: #000000; stroke-width: 0.8; stroke-linejoin: miter; stroke-linecap: square"/>
   </g>
   <g id="patch_6">
    <path d="M 57.6 307.584 
L 414.72 307.584 
" style="fill: none; stroke: #000000; stroke-width: 0.8; stroke-linejoin: miter; stroke-linecap: square"/>
   </g>
   <g id="patch_7">
    <path d="M 57.6 41.472 
L 414.72 41.472 
" style="fill: none; stroke: #000000; stroke-width: 0.8; stroke-linejoin: miter; stroke-linecap: square"/>
   </g>
   <g id="text_16">
    <!-- Deviation With Respect To Expected Value -->
    <g transform="translate(93.164062 35.472) scale(0.12 -0.12)">
     <defs>
      <path id="DejaVuSans-Bold-59" d="M 97 3500 
L 1216 3500 
L 2088 1081 
L 2956 3500 
L 4078 3500 
L 2700 0 
L 1472 0 
L 97 3500 
z
" transform="scale(0.015625)"/>
      <path id="DejaVuSans-Bold-4c" d="M 538 3500 
L 1656 3500 
L 1656 0 
L 538 0 
L 538 3500 
z
M 538 4863 
L 1656 4863 
L 1656 3950 
L 538 3950 
L 538 4863 
z
" transform="scale(0.015625)"/>
      <path id="DejaVuSans-Bold-52" d="M 2203 2784 
Q 1831 2784 1636 2517 
Q 1441 2250 1441 1747 
Q 1441 1244 1636 976 
Q 1831 709 2203 709 
Q 2569 709 2762 976 
Q 2956 1244 2956 1747 
Q 2956 2250 2762 2517 
Q 2569 2784 2203 2784 
z
M 2203 3584 
Q 3106 3584 3614 3096 
Q 4122 2609 4122 1747 
Q 4122 884 3614 396 
Q 3106 -91 2203 -91 
Q 1297 -91 786 396 
Q 275 884 275 1747 
Q 275 2609 786 3096 
Q 1297 3584 2203 3584 
z
" transform="scale(0.015625)"/>
      <path id="DejaVuSans-Bold-3" transform="scale(0.015625)"/>
      <path id="DejaVuSans-Bold-3a" d="M 191 4666 
L 1344 4666 
L 2150 1275 
L 2950 4666 
L 4109 4666 
L 4909 1275 
L 5716 4666 
L 6859 4666 
L 5759 0 
L 4372 0 
L 3525 3547 
L 2688 0 
L 1300 0 
L 191 4666 
z
" transform="scale(0.015625)"/>
      <path id="DejaVuSans-Bold-4b" d="M 4056 2131 
L 4056 0 
L 2931 0 
L 2931 347 
L 2931 1625 
Q 2931 2084 2911 2256 
Q 2891 2428 2841 2509 
Q 2775 2619 2662 2680 
Q 2550 2741 2406 2741 
Q 2056 2741 1856 2470 
Q 1656 2200 1656 1722 
L 1656 0 
L 538 0 
L 538 4863 
L 1656 4863 
L 1656 2988 
Q 1909 3294 2193 3439 
Q 2478 3584 2822 3584 
Q 3428 3584 3742 3212 
Q 4056 2841 4056 2131 
z
" transform="scale(0.015625)"/>
      <path id="DejaVuSans-Bold-35" d="M 2297 2597 
Q 2675 2597 2839 2737 
Q 3003 2878 3003 3200 
Q 3003 3519 2839 3656 
Q 2675 3794 2297 3794 
L 1791 3794 
L 1791 2597 
L 2297 2597 
z
M 1791 1766 
L 1791 0 
L 588 0 
L 588 4666 
L 2425 4666 
Q 3347 4666 3776 4356 
Q 4206 4047 4206 3378 
Q 4206 2916 3982 2619 
Q 3759 2322 3309 2181 
Q 3556 2125 3751 1926 
Q 3947 1728 4147 1325 
L 4800 0 
L 3519 0 
L 2950 1159 
Q 2778 1509 2601 1637 
Q 2425 1766 2131 1766 
L 1791 1766 
z
" transform="scale(0.015625)"/>
      <path id="DejaVuSans-Bold-56" d="M 3272 3391 
L 3272 2541 
Q 2913 2691 2578 2766 
Q 2244 2841 1947 2841 
Q 1628 2841 1473 2761 
Q 1319 2681 1319 2516 
Q 1319 2381 1436 2309 
Q 1553 2238 1856 2203 
L 2053 2175 
Q 2913 2066 3209 1816 
Q 3506 1566 3506 1031 
Q 3506 472 3093 190 
Q 2681 -91 1863 -91 
Q 1516 -91 1145 -36 
Q 775 19 384 128 
L 384 978 
Q 719 816 1070 734 
Q 1422 653 1784 653 
Q 2113 653 2278 743 
Q 2444 834 2444 1013 
Q 2444 1163 2330 1236 
Q 2216 1309 1875 1350 
L 1678 1375 
Q 931 1469 631 1722 
Q 331 1975 331 2491 
Q 331 3047 712 3315 
Q 1094 3584 1881 3584 
Q 2191 3584 2531 3537 
Q 2872 3491 3272 3391 
z
" transform="scale(0.015625)"/>
      <path id="DejaVuSans-Bold-53" d="M 1656 506 
L 1656 -1331 
L 538 -1331 
L 538 3500 
L 1656 3500 
L 1656 2988 
Q 1888 3294 2169 3439 
Q 2450 3584 2816 3584 
Q 3463 3584 3878 3070 
Q 4294 2556 4294 1747 
Q 4294 938 3878 423 
Q 3463 -91 2816 -91 
Q 2450 -91 2169 54 
Q 1888 200 1656 506 
z
M 2400 2772 
Q 2041 2772 1848 2508 
Q 1656 2244 1656 1747 
Q 1656 1250 1848 986 
Q 2041 722 2400 722 
Q 2759 722 2948 984 
Q 3138 1247 3138 1747 
Q 3138 2247 2948 2509 
Q 2759 2772 2400 2772 
z
" transform="scale(0.015625)"/>
      <path id="DejaVuSans-Bold-37" d="M 31 4666 
L 4331 4666 
L 4331 3756 
L 2784 3756 
L 2784 0 
L 1581 0 
L 1581 3756 
L 31 3756 
L 31 4666 
z
" transform="scale(0.015625)"/>
      <path id="DejaVuSans-Bold-28" d="M 588 4666 
L 3834 4666 
L 3834 3756 
L 1791 3756 
L 1791 2888 
L 3713 2888 
L 3713 1978 
L 1791 1978 
L 1791 909 
L 3903 909 
L 3903 0 
L 588 0 
L 588 4666 
z
" transform="scale(0.015625)"/>
      <path id="DejaVuSans-Bold-5b" d="M 1422 1791 
L 159 3500 
L 1344 3500 
L 2059 2463 
L 2784 3500 
L 3969 3500 
L 2706 1797 
L 4031 0 
L 2847 0 
L 2059 1106 
L 1281 0 
L 97 0 
L 1422 1791 
z
" transform="scale(0.015625)"/>
      <path id="DejaVuSans-Bold-47" d="M 2919 2988 
L 2919 4863 
L 4044 4863 
L 4044 0 
L 2919 0 
L 2919 506 
Q 2688 197 2409 53 
Q 2131 -91 1766 -91 
Q 1119 -91 703 423 
Q 288 938 288 1747 
Q 288 2556 703 3070 
Q 1119 3584 1766 3584 
Q 2128 3584 2408 3439 
Q 2688 3294 2919 2988 
z
M 2181 722 
Q 2541 722 2730 984 
Q 2919 1247 2919 1747 
Q 2919 2247 2730 2509 
Q 2541 2772 2181 2772 
Q 1825 2772 1636 2509 
Q 1447 2247 1447 1747 
Q 1447 1247 1636 984 
Q 1825 722 2181 722 
z
" transform="scale(0.015625)"/>
      <path id="DejaVuSans-Bold-39" d="M 31 4666 
L 1241 4666 
L 2478 1222 
L 3713 4666 
L 4922 4666 
L 3194 0 
L 1759 0 
L 31 4666 
z
" transform="scale(0.015625)"/>
      <path id="DejaVuSans-Bold-4f" d="M 538 4863 
L 1656 4863 
L 1656 0 
L 538 0 
L 538 4863 
z
" transform="scale(0.015625)"/>
      <path id="DejaVuSans-Bold-58" d="M 500 1363 
L 500 3500 
L 1625 3500 
L 1625 3150 
Q 1625 2866 1622 2436 
Q 1619 2006 1619 1863 
Q 1619 1441 1641 1255 
Q 1663 1069 1716 984 
Q 1784 875 1895 815 
Q 2006 756 2150 756 
Q 2500 756 2700 1025 
Q 2900 1294 2900 1772 
L 2900 3500 
L 4019 3500 
L 4019 0 
L 2900 0 
L 2900 506 
Q 2647 200 2364 54 
Q 2081 -91 1741 -91 
Q 1134 -91 817 281 
Q 500 653 500 1363 
z
" transform="scale(0.015625)"/>
     </defs>
     <use xlink:href="#DejaVuSans-Bold-27"/>
     <use xlink:href="#DejaVuSans-Bold-48" transform="translate(83.015625 0)"/>
     <use xlink:href="#DejaVuSans-Bold-59" transform="translate(150.84375 0)"/>
     <use xlink:href="#DejaVuSans-Bold-4c" transform="translate(216.03125 0)"/>
     <use xlink:href="#DejaVuSans-Bold-44" transform="translate(250.3125 0)"/>
     <use xlink:href="#DejaVuSans-Bold-57" transform="translate(317.796875 0)"/>
     <use xlink:href="#DejaVuSans-Bold-4c" transform="translate(365.59375 0)"/>
     <use xlink:href="#DejaVuSans-Bold-52" transform="translate(399.875 0)"/>
     <use xlink:href="#DejaVuSans-Bold-51" transform="translate(468.578125 0)"/>
     <use xlink:href="#DejaVuSans-Bold-3" transform="translate(539.765625 0)"/>
     <use xlink:href="#DejaVuSans-Bold-3a" transform="translate(574.578125 0)"/>
     <use xlink:href="#DejaVuSans-Bold-4c" transform="translate(684.875 0)"/>
     <use xlink:href="#DejaVuSans-Bold-57" transform="translate(719.15625 0)"/>
     <use xlink:href="#DejaVuSans-Bold-4b" transform="translate(766.953125 0)"/>
     <use xlink:href="#DejaVuSans-Bold-3" transform="translate(838.140625 0)"/>
     <use xlink:href="#DejaVuSans-Bold-35" transform="translate(872.953125 0)"/>
     <use xlink:href="#DejaVuSans-Bold-48" transform="translate(949.953125 0)"/>
     <use xlink:href="#DejaVuSans-Bold-56" transform="translate(1017.78125 0)"/>
     <use xlink:href="#DejaVuSans-Bold-53" transform="translate(1077.296875 0)"/>
     <use xlink:href="#DejaVuSans-Bold-48" transform="translate(1148.875 0)"/>
     <use xlink:href="#DejaVuSans-Bold-46" transform="translate(1216.703125 0)"/>
     <use xlink:href="#DejaVuSans-Bold-57" transform="translate(1275.984375 0)"/>
     <use xlink:href="#DejaVuSans-Bold-3" transform="translate(1323.78125 0)"/>
     <use xlink:href="#DejaVuSans-Bold-37" transform="translate(1358.59375 0)"/>
     <use xlink:href="#DejaVuSans-Bold-52" transform="translate(1413.53125 0)"/>
     <use xlink:href="#DejaVuSans-Bold-3" transform="translate(1482.234375 0)"/>
     <use xlink:href="#DejaVuSans-Bold-28" transform="translate(1517.046875 0)"/>
     <use xlink:href="#DejaVuSans-Bold-5b" transform="translate(1585.359375 0)"/>
     <use xlink:href="#DejaVuSans-Bold-53" transform="translate(1649.859375 0)"/>
     <use xlink:href="#DejaVuSans-Bold-48" transform="translate(1721.4375 0)"/>
     <use xlink:href="#DejaVuSans-Bold-46" transform="translate(1789.265625 0)"/>
     <use xlink:href="#DejaVuSans-Bold-57" transform="translate(1848.546875 0)"/>
     <use xlink:href="#DejaVuSans-Bold-48" transform="translate(1896.34375 0)"/>
     <use xlink:href="#DejaVuSans-Bold-47" transform="translate(1964.171875 0)"/>
     <use xlink:href="#DejaVuSans-Bold-3" transform="translate(2035.75 0)"/>
     <use xlink:href="#DejaVuSans-Bold-39" transform="translate(2070.5625 0)"/>
     <use xlink:href="#DejaVuSans-Bold-44" transform="translate(2142.484375 0)"/>
     <use xlink:href="#DejaVuSans-Bold-4f" transform="translate(2209.96875 0)"/>
     <use xlink:href="#DejaVuSans-Bold-58" transform="translate(2244.25 0)"/>
     <use xlink:href="#DejaVuSans-Bold-48" transform="translate(2315.4375 0)"/>
    </g>
   </g>
   <g id="legend_1">
    <g id="patch_8">
     <path d="M 64.6 94.474344 
L 238.979688 94.474344 
Q 240.979688 94.474344 240.979688 92.474344 
L 240.979688 48.472 
Q 240.979688 46.472 238.979688 46.472 
L 64.6 46.472 
Q 62.6 46.472 62.6 48.472 
L 62.6 92.474344 
Q 62.6 94.474344 64.6 94.474344 
z
" style="fill: #ffffff; opacity: 0.8; stroke: #cccccc; stroke-linejoin: miter"/>
    </g>
    <g id="line2d_22">
     <path d="M 66.6 54.570438 
L 76.6 54.570438 
L 86.6 54.570438 
" style="fill: none; stroke: #808080; stroke-opacity: 0.5; stroke-width: 0.7; stroke-linecap: square"/>
    </g>
    <g id="text_17">
     <!-- Raw Deviation Percentage -->
     <g transform="translate(94.6 58.070438) scale(0.1 -0.1)">
      <defs>
       <path id="DejaVuSans-35" d="M 2841 2188 
Q 3044 2119 3236 1894 
Q 3428 1669 3622 1275 
L 4263 0 
L 3584 0 
L 2988 1197 
Q 2756 1666 2539 1819 
Q 2322 1972 1947 1972 
L 1259 1972 
L 1259 0 
L 628 0 
L 628 4666 
L 2053 4666 
Q 2853 4666 3247 4331 
Q 3641 3997 3641 3322 
Q 3641 2881 3436 2590 
Q 3231 2300 2841 2188 
z
M 1259 4147 
L 1259 2491 
L 2053 2491 
Q 2509 2491 2742 2702 
Q 2975 2913 2975 3322 
Q 2975 3731 2742 3939 
Q 2509 4147 2053 4147 
L 1259 4147 
z
" transform="scale(0.015625)"/>
       <path id="DejaVuSans-44" d="M 2194 1759 
Q 1497 1759 1228 1600 
Q 959 1441 959 1056 
Q 959 750 1161 570 
Q 1363 391 1709 391 
Q 2188 391 2477 730 
Q 2766 1069 2766 1631 
L 2766 1759 
L 2194 1759 
z
M 3341 1997 
L 3341 0 
L 2766 0 
L 2766 531 
Q 2569 213 2275 61 
Q 1981 -91 1556 -91 
Q 1019 -91 701 211 
Q 384 513 384 1019 
Q 384 1609 779 1909 
Q 1175 2209 1959 2209 
L 2766 2209 
L 2766 2266 
Q 2766 2663 2505 2880 
Q 2244 3097 1772 3097 
Q 1472 3097 1187 3025 
Q 903 2953 641 2809 
L 641 3341 
Q 956 3463 1253 3523 
Q 1550 3584 1831 3584 
Q 2591 3584 2966 3190 
Q 3341 2797 3341 1997 
z
" transform="scale(0.015625)"/>
       <path id="DejaVuSans-5a" d="M 269 3500 
L 844 3500 
L 1563 769 
L 2278 3500 
L 2956 3500 
L 3675 769 
L 4391 3500 
L 4966 3500 
L 4050 0 
L 3372 0 
L 2619 2869 
L 1863 0 
L 1184 0 
L 269 3500 
z
" transform="scale(0.015625)"/>
       <path id="DejaVuSans-3" transform="scale(0.015625)"/>
       <path id="DejaVuSans-27" d="M 1259 4147 
L 1259 519 
L 2022 519 
Q 2988 519 3436 956 
Q 3884 1394 3884 2338 
Q 3884 3275 3436 3711 
Q 2988 4147 2022 4147 
L 1259 4147 
z
M 628 4666 
L 1925 4666 
Q 3281 4666 3915 4102 
Q 4550 3538 4550 2338 
Q 4550 1131 3912 565 
Q 3275 0 1925 0 
L 628 0 
L 628 4666 
z
" transform="scale(0.015625)"/>
       <path id="DejaVuSans-48" d="M 3597 1894 
L 3597 1613 
L 953 1613 
Q 991 1019 1311 708 
Q 1631 397 2203 397 
Q 2534 397 2845 478 
Q 3156 559 3463 722 
L 3463 178 
Q 3153 47 2828 -22 
Q 2503 -91 2169 -91 
Q 1331 -91 842 396 
Q 353 884 353 1716 
Q 353 2575 817 3079 
Q 1281 3584 2069 3584 
Q 2775 3584 3186 3129 
Q 3597 2675 3597 1894 
z
M 3022 2063 
Q 3016 2534 2758 2815 
Q 2500 3097 2075 3097 
Q 1594 3097 1305 2825 
Q 1016 2553 972 2059 
L 3022 2063 
z
" transform="scale(0.015625)"/>
       <path id="DejaVuSans-59" d="M 191 3500 
L 800 3500 
L 1894 563 
L 2988 3500 
L 3597 3500 
L 2284 0 
L 1503 0 
L 191 3500 
z
" transform="scale(0.015625)"/>
       <path id="DejaVuSans-4c" d="M 603 3500 
L 1178 3500 
L 1178 0 
L 603 0 
L 603 3500 
z
M 603 4863 
L 1178 4863 
L 1178 4134 
L 603 4134 
L 603 4863 
z
" transform="scale(0.015625)"/>
       <path id="DejaVuSans-57" d="M 1172 4494 
L 1172 3500 
L 2356 3500 
L 2356 3053 
L 1172 3053 
L 1172 1153 
Q 1172 725 1289 603 
Q 1406 481 1766 481 
L 2356 481 
L 2356 0 
L 1766 0 
Q 1100 0 847 248 
Q 594 497 594 1153 
L 594 3053 
L 172 3053 
L 172 3500 
L 594 3500 
L 594 4494 
L 1172 4494 
z
" transform="scale(0.015625)"/>
       <path id="DejaVuSans-52" d="M 1959 3097 
Q 1497 3097 1228 2736 
Q 959 2375 959 1747 
Q 959 1119 1226 758 
Q 1494 397 1959 397 
Q 2419 397 2687 759 
Q 2956 1122 2956 1747 
Q 2956 2369 2687 2733 
Q 2419 3097 1959 3097 
z
M 1959 3584 
Q 2709 3584 3137 3096 
Q 3566 2609 3566 1747 
Q 3566 888 3137 398 
Q 2709 -91 1959 -91 
Q 1206 -91 779 398 
Q 353 888 353 1747 
Q 353 2609 779 3096 
Q 1206 3584 1959 3584 
z
" transform="scale(0.015625)"/>
       <path id="DejaVuSans-51" d="M 3513 2113 
L 3513 0 
L 2938 0 
L 2938 2094 
Q 2938 2591 2744 2837 
Q 2550 3084 2163 3084 
Q 1697 3084 1428 2787 
Q 1159 2491 1159 1978 
L 1159 0 
L 581 0 
L 581 3500 
L 1159 3500 
L 1159 2956 
Q 1366 3272 1645 3428 
Q 1925 3584 2291 3584 
Q 2894 3584 3203 3211 
Q 3513 2838 3513 2113 
z
" transform="scale(0.015625)"/>
       <path id="DejaVuSans-33" d="M 1259 4147 
L 1259 2394 
L 2053 2394 
Q 2494 2394 2734 2622 
Q 2975 2850 2975 3272 
Q 2975 3691 2734 3919 
Q 2494 4147 2053 4147 
L 1259 4147 
z
M 628 4666 
L 2053 4666 
Q 2838 4666 3239 4311 
Q 3641 3956 3641 3272 
Q 3641 2581 3239 2228 
Q 2838 1875 2053 1875 
L 1259 1875 
L 1259 0 
L 628 0 
L 628 4666 
z
" transform="scale(0.015625)"/>
       <path id="DejaVuSans-55" d="M 2631 2963 
Q 2534 3019 2420 3045 
Q 2306 3072 2169 3072 
Q 1681 3072 1420 2755 
Q 1159 2438 1159 1844 
L 1159 0 
L 581 0 
L 581 3500 
L 1159 3500 
L 1159 2956 
Q 1341 3275 1631 3429 
Q 1922 3584 2338 3584 
Q 2397 3584 2469 3576 
Q 2541 3569 2628 3553 
L 2631 2963 
z
" transform="scale(0.015625)"/>
       <path id="DejaVuSans-46" d="M 3122 3366 
L 3122 2828 
Q 2878 2963 2633 3030 
Q 2388 3097 2138 3097 
Q 1578 3097 1268 2742 
Q 959 2388 959 1747 
Q 959 1106 1268 751 
Q 1578 397 2138 397 
Q 2388 397 2633 464 
Q 2878 531 3122 666 
L 3122 134 
Q 2881 22 2623 -34 
Q 2366 -91 2075 -91 
Q 1284 -91 818 406 
Q 353 903 353 1747 
Q 353 2603 823 3093 
Q 1294 3584 2113 3584 
Q 2378 3584 2631 3529 
Q 2884 3475 3122 3366 
z
" transform="scale(0.015625)"/>
       <path id="DejaVuSans-4a" d="M 2906 1791 
Q 2906 2416 2648 2759 
Q 2391 3103 1925 3103 
Q 1463 3103 1205 2759 
Q 947 2416 947 1791 
Q 947 1169 1205 825 
Q 1463 481 1925 481 
Q 2391 481 2648 825 
Q 2906 1169 2906 1791 
z
M 3481 434 
Q 3481 -459 3084 -895 
Q 2688 -1331 1869 -1331 
Q 1566 -1331 1297 -1286 
Q 1028 -1241 775 -1147 
L 775 -588 
Q 1028 -725 1275 -790 
Q 1522 -856 1778 -856 
Q 2344 -856 2625 -561 
Q 2906 -266 2906 331 
L 2906 616 
Q 2728 306 2450 153 
Q 2172 0 1784 0 
Q 1141 0 747 490 
Q 353 981 353 1791 
Q 353 2603 747 3093 
Q 1141 3584 1784 3584 
Q 2172 3584 2450 3431 
Q 2728 3278 2906 2969 
L 2906 3500 
L 3481 3500 
L 3481 434 
z
" transform="scale(0.015625)"/>
      </defs>
      <use xlink:href="#DejaVuSans-35"/>
      <use xlink:href="#DejaVuSans-44" transform="translate(67.28125 0)"/>
      <use xlink:href="#DejaVuSans-5a" transform="translate(128.5625 0)"/>
      <use xlink:href="#DejaVuSans-3" transform="translate(210.34375 0)"/>
      <use xlink:href="#DejaVuSans-27" transform="translate(242.125 0)"/>
      <use xlink:href="#DejaVuSans-48" transform="translate(319.125 0)"/>
      <use xlink:href="#DejaVuSans-59" transform="translate(380.65625 0)"/>
      <use xlink:href="#DejaVuSans-4c" transform="translate(439.84375 0)"/>
      <use xlink:href="#DejaVuSans-44" transform="translate(467.625 0)"/>
      <use xlink:href="#DejaVuSans-57" transform="translate(528.90625 0)"/>
      <use xlink:href="#DejaVuSans-4c" transform="translate(568.109375 0)"/>
      <use xlink:href="#DejaVuSans-52" transform="translate(595.890625 0)"/>
      <use xlink:href="#DejaVuSans-51" transform="translate(657.078125 0)"/>
      <use xlink:href="#DejaVuSans-3" transform="translate(720.453125 0)"/>
      <use xlink:href="#DejaVuSans-33" transform="translate(752.234375 0)"/>
      <use xlink:href="#DejaVuSans-48" transform="translate(808.96875 0)"/>
      <use xlink:href="#DejaVuSans-55" transform="translate(870.5 0)"/>
      <use xlink:href="#DejaVuSans-46" transform="translate(909.40625 0)"/>
      <use xlink:href="#DejaVuSans-48" transform="translate(964.390625 0)"/>
      <use xlink:href="#DejaVuSans-51" transform="translate(1025.921875 0)"/>
      <use xlink:href="#DejaVuSans-57" transform="translate(1089.296875 0)"/>
      <use xlink:href="#DejaVuSans-44" transform="translate(1128.5 0)"/>
      <use xlink:href="#DejaVuSans-4a" transform="translate(1189.78125 0)"/>
      <use xlink:href="#DejaVuSans-48" transform="translate(1253.265625 0)"/>
     </g>
    </g>
    <g id="line2d_23">
     <path d="M 66.6 69.571219 
L 76.6 69.571219 
L 86.6 69.571219 
" style="fill: none; stroke: #ba7517; stroke-width: 1.5; stroke-linecap: square"/>
    </g>
    <g id="text_18">
     <!-- Smoothened - 7 Day Median -->
     <g transform="translate(94.6 73.071219) scale(0.1 -0.1)">
      <defs>
       <path id="DejaVuSans-36" d="M 3425 4513 
L 3425 3897 
Q 3066 4069 2747 4153 
Q 2428 4238 2131 4238 
Q 1616 4238 1336 4038 
Q 1056 3838 1056 3469 
Q 1056 3159 1242 3001 
Q 1428 2844 1947 2747 
L 2328 2669 
Q 3034 2534 3370 2195 
Q 3706 1856 3706 1288 
Q 3706 609 3251 259 
Q 2797 -91 1919 -91 
Q 1588 -91 1214 -16 
Q 841 59 441 206 
L 441 856 
Q 825 641 1194 531 
Q 1563 422 1919 422 
Q 2459 422 2753 634 
Q 3047 847 3047 1241 
Q 3047 1584 2836 1778 
Q 2625 1972 2144 2069 
L 1759 2144 
Q 1053 2284 737 2584 
Q 422 2884 422 3419 
Q 422 4038 858 4394 
Q 1294 4750 2059 4750 
Q 2388 4750 2728 4690 
Q 3069 4631 3425 4513 
z
" transform="scale(0.015625)"/>
       <path id="DejaVuSans-50" d="M 3328 2828 
Q 3544 3216 3844 3400 
Q 4144 3584 4550 3584 
Q 5097 3584 5394 3201 
Q 5691 2819 5691 2113 
L 5691 0 
L 5113 0 
L 5113 2094 
Q 5113 2597 4934 2840 
Q 4756 3084 4391 3084 
Q 3944 3084 3684 2787 
Q 3425 2491 3425 1978 
L 3425 0 
L 2847 0 
L 2847 2094 
Q 2847 2600 2669 2842 
Q 2491 3084 2119 3084 
Q 1678 3084 1418 2786 
Q 1159 2488 1159 1978 
L 1159 0 
L 581 0 
L 581 3500 
L 1159 3500 
L 1159 2956 
Q 1356 3278 1631 3431 
Q 1906 3584 2284 3584 
Q 2666 3584 2933 3390 
Q 3200 3197 3328 2828 
z
" transform="scale(0.015625)"/>
       <path id="DejaVuSans-4b" d="M 3513 2113 
L 3513 0 
L 2938 0 
L 2938 2094 
Q 2938 2591 2744 2837 
Q 2550 3084 2163 3084 
Q 1697 3084 1428 2787 
Q 1159 2491 1159 1978 
L 1159 0 
L 581 0 
L 581 4863 
L 1159 4863 
L 1159 2956 
Q 1366 3272 1645 3428 
Q 1925 3584 2291 3584 
Q 2894 3584 3203 3211 
Q 3513 2838 3513 2113 
z
" transform="scale(0.015625)"/>
       <path id="DejaVuSans-47" d="M 2906 2969 
L 2906 4863 
L 3481 4863 
L 3481 0 
L 2906 0 
L 2906 525 
Q 2725 213 2448 61 
Q 2172 -91 1784 -91 
Q 1150 -91 751 415 
Q 353 922 353 1747 
Q 353 2572 751 3078 
Q 1150 3584 1784 3584 
Q 2172 3584 2448 3432 
Q 2725 3281 2906 2969 
z
M 947 1747 
Q 947 1113 1208 752 
Q 1469 391 1925 391 
Q 2381 391 2643 752 
Q 2906 1113 2906 1747 
Q 2906 2381 2643 2742 
Q 2381 3103 1925 3103 
Q 1469 3103 1208 2742 
Q 947 2381 947 1747 
z
" transform="scale(0.015625)"/>
       <path id="DejaVuSans-5c" d="M 2059 -325 
Q 1816 -950 1584 -1140 
Q 1353 -1331 966 -1331 
L 506 -1331 
L 506 -850 
L 844 -850 
Q 1081 -850 1212 -737 
Q 1344 -625 1503 -206 
L 1606 56 
L 191 3500 
L 800 3500 
L 1894 763 
L 2988 3500 
L 3597 3500 
L 2059 -325 
z
" transform="scale(0.015625)"/>
       <path id="DejaVuSans-30" d="M 628 4666 
L 1569 4666 
L 2759 1491 
L 3956 4666 
L 4897 4666 
L 4897 0 
L 4281 0 
L 4281 4097 
L 3078 897 
L 2444 897 
L 1241 4097 
L 1241 0 
L 628 0 
L 628 4666 
z
" transform="scale(0.015625)"/>
      </defs>
      <use xlink:href="#DejaVuSans-36"/>
      <use xlink:href="#DejaVuSans-50" transform="translate(63.484375 0)"/>
      <use xlink:href="#DejaVuSans-52" transform="translate(160.890625 0)"/>
      <use xlink:href="#DejaVuSans-52" transform="translate(222.078125 0)"/>
      <use xlink:href="#DejaVuSans-57" transform="translate(283.265625 0)"/>
      <use xlink:href="#DejaVuSans-4b" transform="translate(322.46875 0)"/>
      <use xlink:href="#DejaVuSans-48" transform="translate(385.84375 0)"/>
      <use xlink:href="#DejaVuSans-51" transform="translate(447.375 0)"/>
      <use xlink:href="#DejaVuSans-48" transform="translate(510.75 0)"/>
      <use xlink:href="#DejaVuSans-47" transform="translate(572.28125 0)"/>
      <use xlink:href="#DejaVuSans-3" transform="translate(635.765625 0)"/>
      <use xlink:href="#DejaVuSans-10" transform="translate(667.546875 0)"/>
      <use xlink:href="#DejaVuSans-3" transform="translate(703.625 0)"/>
      <use xlink:href="#DejaVuSans-1a" transform="translate(735.40625 0)"/>
      <use xlink:href="#DejaVuSans-3" transform="translate(799.03125 0)"/>
      <use xlink:href="#DejaVuSans-27" transform="translate(830.8125 0)"/>
      <use xlink:href="#DejaVuSans-44" transform="translate(907.8125 0)"/>
      <use xlink:href="#DejaVuSans-5c" transform="translate(969.09375 0)"/>
      <use xlink:href="#DejaVuSans-3" transform="translate(1028.28125 0)"/>
      <use xlink:href="#DejaVuSans-30" transform="translate(1060.0625 0)"/>
      <use xlink:href="#DejaVuSans-48" transform="translate(1146.34375 0)"/>
      <use xlink:href="#DejaVuSans-47" transform="translate(1207.875 0)"/>
      <use xlink:href="#DejaVuSans-4c" transform="translate(1271.359375 0)"/>
      <use xlink:href="#DejaVuSans-44" transform="translate(1299.140625 0)"/>
      <use xlink:href="#DejaVuSans-51" transform="translate(1360.421875 0)"/>
     </g>
    </g>
    <g id="patch_9">
     <path d="M 66.6 88.072 
L 86.6 88.072 
L 86.6 81.072 
L 66.6 81.072 
z
" style="fill: #d3d3d3; opacity: 0.5; stroke: #d3d3d3; stroke-linejoin: miter"/>
    </g>
    <g id="text_19">
     <!-- 5% Deviation Band -->
     <g transform="translate(94.6 88.072) scale(0.1 -0.1)">
      <defs>
       <path id="DejaVuSans-8" d="M 4653 2053 
Q 4381 2053 4226 1822 
Q 4072 1591 4072 1178 
Q 4072 772 4226 539 
Q 4381 306 4653 306 
Q 4919 306 5073 539 
Q 5228 772 5228 1178 
Q 5228 1588 5073 1820 
Q 4919 2053 4653 2053 
z
M 4653 2450 
Q 5147 2450 5437 2106 
Q 5728 1763 5728 1178 
Q 5728 594 5436 251 
Q 5144 -91 4653 -91 
Q 4153 -91 3862 251 
Q 3572 594 3572 1178 
Q 3572 1766 3864 2108 
Q 4156 2450 4653 2450 
z
M 1428 4353 
Q 1159 4353 1004 4120 
Q 850 3888 850 3481 
Q 850 3069 1003 2837 
Q 1156 2606 1428 2606 
Q 1700 2606 1854 2837 
Q 2009 3069 2009 3481 
Q 2009 3884 1853 4118 
Q 1697 4353 1428 4353 
z
M 4250 4750 
L 4750 4750 
L 1831 -91 
L 1331 -91 
L 4250 4750 
z
M 1428 4750 
Q 1922 4750 2215 4408 
Q 2509 4066 2509 3481 
Q 2509 2891 2217 2550 
Q 1925 2209 1428 2209 
Q 931 2209 642 2551 
Q 353 2894 353 3481 
Q 353 4063 643 4406 
Q 934 4750 1428 4750 
z
" transform="scale(0.015625)"/>
       <path id="DejaVuSans-25" d="M 1259 2228 
L 1259 519 
L 2272 519 
Q 2781 519 3026 730 
Q 3272 941 3272 1375 
Q 3272 1813 3026 2020 
Q 2781 2228 2272 2228 
L 1259 2228 
z
M 1259 4147 
L 1259 2741 
L 2194 2741 
Q 2656 2741 2882 2914 
Q 3109 3088 3109 3444 
Q 3109 3797 2882 3972 
Q 2656 4147 2194 4147 
L 1259 4147 
z
M 628 4666 
L 2241 4666 
Q 2963 4666 3353 4366 
Q 3744 4066 3744 3513 
Q 3744 3084 3544 2831 
Q 3344 2578 2956 2516 
Q 3422 2416 3680 2098 
Q 3938 1781 3938 1306 
Q 3938 681 3513 340 
Q 3088 0 2303 0 
L 628 0 
L 628 4666 
z
" transform="scale(0.015625)"/>
      </defs>
      <use xlink:href="#DejaVuSans-18"/>
      <use xlink:href="#DejaVuSans-8" transform="translate(63.625 0)"/>
      <use xlink:href="#DejaVuSans-3" transform="translate(158.640625 0)"/>
      <use xlink:href="#DejaVuSans-27" transform="translate(190.421875 0)"/>
      <use xlink:href="#DejaVuSans-48" transform="translate(267.421875 0)"/>
      <use xlink:href="#DejaVuSans-59" transform="translate(328.953125 0)"/>
      <use xlink:href="#DejaVuSans-4c" transform="translate(388.140625 0)"/>
      <use xlink:href="#DejaVuSans-44" transform="translate(415.921875 0)"/>
      <use xlink:href="#DejaVuSans-57" transform="translate(477.203125 0)"/>
      <use xlink:href="#DejaVuSans-4c" transform="translate(516.40625 0)"/>
      <use xlink:href="#DejaVuSans-52" transform="translate(544.1875 0)"/>
      <use xlink:href="#DejaVuSans-51" transform="translate(605.375 0)"/>
      <use xlink:href="#DejaVuSans-3" transform="translate(668.75 0)"/>
      <use xlink:href="#DejaVuSans-25" transform="translate(700.53125 0)"/>
      <use xlink:href="#DejaVuSans-44" transform="translate(769.140625 0)"/>
      <use xlink:href="#DejaVuSans-51" transform="translate(830.421875 0)"/>
      <use xlink:href="#DejaVuSans-47" transform="translate(893.796875 0)"/>
     </g>
    </g>
   </g>
  </g>
 </g>
 <defs>
  <clipPath id="pfeb50635be">
   <rect x="57.6" y="41.472" width="357.12" height="266.112"/>
  </clipPath>
 </defs>
</svg>
